<mxfile host="app.diagrams.net" modified="2024-05-09T17:57:55.487Z" agent="Mozilla/5.0 (Windows NT 10.0; Win64; x64) AppleWebKit/537.36 (KHTML, like Gecko) Chrome/124.0.0.0 Safari/537.36" etag="7LpSBtN_8iwVWpCDSOQi" version="24.3.1" type="github">
  <diagram name="Page-1" id="wQkKgjaaqBq_sNw9Wg1S">
    <mxGraphModel dx="1050" dy="603" grid="1" gridSize="10" guides="1" tooltips="1" connect="1" arrows="1" fold="1" page="1" pageScale="1" pageWidth="850" pageHeight="1100" math="0" shadow="0">
      <root>
        <mxCell id="0" />
        <mxCell id="1" parent="0" />
        <mxCell id="16BM7K-kEbTr5yHcOj87-8" style="edgeStyle=orthogonalEdgeStyle;rounded=0;orthogonalLoop=1;jettySize=auto;html=1;exitX=0;exitY=0.5;exitDx=0;exitDy=0;entryX=0.5;entryY=0;entryDx=0;entryDy=0;" edge="1" parent="1" source="16BM7K-kEbTr5yHcOj87-1" target="16BM7K-kEbTr5yHcOj87-2">
          <mxGeometry relative="1" as="geometry" />
        </mxCell>
        <mxCell id="16BM7K-kEbTr5yHcOj87-1" value="Explore Kashmir" style="rounded=0;whiteSpace=wrap;html=1;" vertex="1" parent="1">
          <mxGeometry x="400" y="10" width="120" height="60" as="geometry" />
        </mxCell>
        <mxCell id="16BM7K-kEbTr5yHcOj87-2" value="Authentication" style="rounded=0;whiteSpace=wrap;html=1;" vertex="1" parent="1">
          <mxGeometry x="180" y="100" width="120" height="30" as="geometry" />
        </mxCell>
        <mxCell id="16BM7K-kEbTr5yHcOj87-17" style="edgeStyle=orthogonalEdgeStyle;rounded=0;orthogonalLoop=1;jettySize=auto;html=1;exitX=0;exitY=0.5;exitDx=0;exitDy=0;entryX=0.5;entryY=0;entryDx=0;entryDy=0;" edge="1" parent="1" source="16BM7K-kEbTr5yHcOj87-6" target="16BM7K-kEbTr5yHcOj87-16">
          <mxGeometry relative="1" as="geometry" />
        </mxCell>
        <mxCell id="16BM7K-kEbTr5yHcOj87-6" value="Login" style="rounded=0;whiteSpace=wrap;html=1;" vertex="1" parent="1">
          <mxGeometry x="180" y="160" width="120" height="30" as="geometry" />
        </mxCell>
        <mxCell id="16BM7K-kEbTr5yHcOj87-11" style="edgeStyle=orthogonalEdgeStyle;rounded=0;orthogonalLoop=1;jettySize=auto;html=1;exitX=1;exitY=0.5;exitDx=0;exitDy=0;entryX=0;entryY=0.5;entryDx=0;entryDy=0;" edge="1" parent="1" source="16BM7K-kEbTr5yHcOj87-7" target="16BM7K-kEbTr5yHcOj87-10">
          <mxGeometry relative="1" as="geometry" />
        </mxCell>
        <mxCell id="16BM7K-kEbTr5yHcOj87-7" value="Sign Up" style="rounded=0;whiteSpace=wrap;html=1;" vertex="1" parent="1">
          <mxGeometry x="180" y="130" width="120" height="30" as="geometry" />
        </mxCell>
        <mxCell id="16BM7K-kEbTr5yHcOj87-10" value="Identify User Roles" style="rounded=0;whiteSpace=wrap;html=1;" vertex="1" parent="1">
          <mxGeometry x="480" y="90" width="120" height="30" as="geometry" />
        </mxCell>
        <mxCell id="16BM7K-kEbTr5yHcOj87-34" style="edgeStyle=orthogonalEdgeStyle;rounded=0;orthogonalLoop=1;jettySize=auto;html=1;exitX=0;exitY=0.5;exitDx=0;exitDy=0;entryX=0.5;entryY=0;entryDx=0;entryDy=0;" edge="1" parent="1" source="16BM7K-kEbTr5yHcOj87-12" target="16BM7K-kEbTr5yHcOj87-19">
          <mxGeometry relative="1" as="geometry">
            <mxPoint x="270" y="240" as="targetPoint" />
            <Array as="points">
              <mxPoint x="431" y="135" />
              <mxPoint x="431" y="220" />
              <mxPoint x="270" y="220" />
            </Array>
          </mxGeometry>
        </mxCell>
        <mxCell id="16BM7K-kEbTr5yHcOj87-59" style="edgeStyle=orthogonalEdgeStyle;rounded=0;orthogonalLoop=1;jettySize=auto;html=1;exitX=1;exitY=0.5;exitDx=0;exitDy=0;entryX=1;entryY=0.5;entryDx=0;entryDy=0;" edge="1" parent="1" source="16BM7K-kEbTr5yHcOj87-12" target="16BM7K-kEbTr5yHcOj87-45">
          <mxGeometry relative="1" as="geometry" />
        </mxCell>
        <mxCell id="16BM7K-kEbTr5yHcOj87-61" style="edgeStyle=orthogonalEdgeStyle;rounded=0;orthogonalLoop=1;jettySize=auto;html=1;exitX=1;exitY=0.75;exitDx=0;exitDy=0;entryX=1;entryY=0.5;entryDx=0;entryDy=0;" edge="1" parent="1" source="16BM7K-kEbTr5yHcOj87-12" target="16BM7K-kEbTr5yHcOj87-46">
          <mxGeometry relative="1" as="geometry">
            <Array as="points">
              <mxPoint x="900" y="143" />
              <mxPoint x="900" y="465" />
            </Array>
          </mxGeometry>
        </mxCell>
        <mxCell id="16BM7K-kEbTr5yHcOj87-12" value="User" style="rounded=0;whiteSpace=wrap;html=1;" vertex="1" parent="1">
          <mxGeometry x="480" y="120" width="120" height="30" as="geometry" />
        </mxCell>
        <mxCell id="16BM7K-kEbTr5yHcOj87-40" style="edgeStyle=orthogonalEdgeStyle;rounded=0;orthogonalLoop=1;jettySize=auto;html=1;exitX=1;exitY=0.5;exitDx=0;exitDy=0;entryX=0.5;entryY=0;entryDx=0;entryDy=0;" edge="1" parent="1" source="16BM7K-kEbTr5yHcOj87-13" target="16BM7K-kEbTr5yHcOj87-20">
          <mxGeometry relative="1" as="geometry" />
        </mxCell>
        <mxCell id="16BM7K-kEbTr5yHcOj87-13" value="Service Providers" style="rounded=0;whiteSpace=wrap;html=1;" vertex="1" parent="1">
          <mxGeometry x="480" y="150" width="120" height="30" as="geometry" />
        </mxCell>
        <mxCell id="16BM7K-kEbTr5yHcOj87-42" style="edgeStyle=orthogonalEdgeStyle;rounded=0;orthogonalLoop=1;jettySize=auto;html=1;exitX=0.5;exitY=1;exitDx=0;exitDy=0;entryX=0.5;entryY=0;entryDx=0;entryDy=0;" edge="1" parent="1" source="16BM7K-kEbTr5yHcOj87-14" target="16BM7K-kEbTr5yHcOj87-41">
          <mxGeometry relative="1" as="geometry" />
        </mxCell>
        <mxCell id="16BM7K-kEbTr5yHcOj87-14" value="Admin" style="rounded=0;whiteSpace=wrap;html=1;" vertex="1" parent="1">
          <mxGeometry x="480" y="180" width="120" height="30" as="geometry" />
        </mxCell>
        <mxCell id="16BM7K-kEbTr5yHcOj87-16" value="Forget Password" style="rounded=0;whiteSpace=wrap;html=1;" vertex="1" parent="1">
          <mxGeometry x="20" y="200" width="120" height="30" as="geometry" />
        </mxCell>
        <mxCell id="16BM7K-kEbTr5yHcOj87-18" value="Reset Password" style="rounded=0;whiteSpace=wrap;html=1;" vertex="1" parent="1">
          <mxGeometry x="20" y="230" width="120" height="30" as="geometry" />
        </mxCell>
        <mxCell id="16BM7K-kEbTr5yHcOj87-54" style="edgeStyle=orthogonalEdgeStyle;rounded=0;orthogonalLoop=1;jettySize=auto;html=1;exitX=1;exitY=0.5;exitDx=0;exitDy=0;entryX=0;entryY=0.25;entryDx=0;entryDy=0;" edge="1" parent="1" source="16BM7K-kEbTr5yHcOj87-19" target="16BM7K-kEbTr5yHcOj87-21">
          <mxGeometry relative="1" as="geometry">
            <Array as="points">
              <mxPoint x="450" y="275" />
              <mxPoint x="450" y="298" />
            </Array>
          </mxGeometry>
        </mxCell>
        <mxCell id="16BM7K-kEbTr5yHcOj87-19" value="Destination" style="rounded=0;whiteSpace=wrap;html=1;" vertex="1" parent="1">
          <mxGeometry x="210" y="260" width="120" height="30" as="geometry" />
        </mxCell>
        <mxCell id="16BM7K-kEbTr5yHcOj87-47" style="edgeStyle=orthogonalEdgeStyle;rounded=0;orthogonalLoop=1;jettySize=auto;html=1;exitX=1;exitY=0.5;exitDx=0;exitDy=0;entryX=0.5;entryY=0;entryDx=0;entryDy=0;" edge="1" parent="1" source="16BM7K-kEbTr5yHcOj87-20" target="16BM7K-kEbTr5yHcOj87-45">
          <mxGeometry relative="1" as="geometry" />
        </mxCell>
        <mxCell id="16BM7K-kEbTr5yHcOj87-20" value="Accommodation" style="rounded=0;whiteSpace=wrap;html=1;" vertex="1" parent="1">
          <mxGeometry x="650" y="260" width="120" height="30" as="geometry" />
        </mxCell>
        <mxCell id="16BM7K-kEbTr5yHcOj87-51" style="edgeStyle=orthogonalEdgeStyle;rounded=0;orthogonalLoop=1;jettySize=auto;html=1;exitX=0;exitY=0.5;exitDx=0;exitDy=0;entryX=1;entryY=0.5;entryDx=0;entryDy=0;" edge="1" parent="1" source="16BM7K-kEbTr5yHcOj87-21" target="16BM7K-kEbTr5yHcOj87-27">
          <mxGeometry relative="1" as="geometry">
            <mxPoint x="570" y="430" as="targetPoint" />
            <Array as="points">
              <mxPoint x="571" y="305" />
              <mxPoint x="571" y="418" />
            </Array>
          </mxGeometry>
        </mxCell>
        <mxCell id="16BM7K-kEbTr5yHcOj87-21" value="Transport" style="rounded=0;whiteSpace=wrap;html=1;" vertex="1" parent="1">
          <mxGeometry x="650" y="290" width="120" height="30" as="geometry" />
        </mxCell>
        <mxCell id="16BM7K-kEbTr5yHcOj87-22" value="Ecommerce" style="rounded=0;whiteSpace=wrap;html=1;" vertex="1" parent="1">
          <mxGeometry x="650" y="320" width="120" height="30" as="geometry" />
        </mxCell>
        <mxCell id="16BM7K-kEbTr5yHcOj87-24" value="Favorites" style="rounded=0;whiteSpace=wrap;html=1;" vertex="1" parent="1">
          <mxGeometry x="210" y="290" width="120" height="30" as="geometry" />
        </mxCell>
        <mxCell id="16BM7K-kEbTr5yHcOj87-31" style="edgeStyle=orthogonalEdgeStyle;rounded=0;orthogonalLoop=1;jettySize=auto;html=1;exitX=0;exitY=0.5;exitDx=0;exitDy=0;entryX=0.5;entryY=0;entryDx=0;entryDy=0;" edge="1" parent="1" source="16BM7K-kEbTr5yHcOj87-25" target="16BM7K-kEbTr5yHcOj87-27">
          <mxGeometry relative="1" as="geometry" />
        </mxCell>
        <mxCell id="16BM7K-kEbTr5yHcOj87-25" value="Search" style="rounded=0;whiteSpace=wrap;html=1;" vertex="1" parent="1">
          <mxGeometry x="210" y="320" width="120" height="30" as="geometry" />
        </mxCell>
        <mxCell id="16BM7K-kEbTr5yHcOj87-26" value="Filters" style="rounded=0;whiteSpace=wrap;html=1;" vertex="1" parent="1">
          <mxGeometry x="210" y="350" width="120" height="30" as="geometry" />
        </mxCell>
        <mxCell id="16BM7K-kEbTr5yHcOj87-32" style="edgeStyle=orthogonalEdgeStyle;rounded=0;orthogonalLoop=1;jettySize=auto;html=1;exitX=0.25;exitY=0;exitDx=0;exitDy=0;entryX=0;entryY=0.5;entryDx=0;entryDy=0;" edge="1" parent="1" source="16BM7K-kEbTr5yHcOj87-27" target="16BM7K-kEbTr5yHcOj87-24">
          <mxGeometry relative="1" as="geometry" />
        </mxCell>
        <mxCell id="16BM7K-kEbTr5yHcOj87-27" value="Google Maps" style="rounded=0;whiteSpace=wrap;html=1;" vertex="1" parent="1">
          <mxGeometry x="20" y="400" width="120" height="35" as="geometry" />
        </mxCell>
        <mxCell id="16BM7K-kEbTr5yHcOj87-28" value="Real Time Tracking and Updates" style="rounded=0;whiteSpace=wrap;html=1;" vertex="1" parent="1">
          <mxGeometry x="20" y="435" width="120" height="45" as="geometry" />
        </mxCell>
        <mxCell id="16BM7K-kEbTr5yHcOj87-41" value="Manage Users and Service Providers" style="rounded=0;whiteSpace=wrap;html=1;" vertex="1" parent="1">
          <mxGeometry x="480" y="435" width="120" height="40" as="geometry" />
        </mxCell>
        <mxCell id="16BM7K-kEbTr5yHcOj87-45" value="Stay" style="rounded=0;whiteSpace=wrap;html=1;" vertex="1" parent="1">
          <mxGeometry x="730" y="420" width="120" height="30" as="geometry" />
        </mxCell>
        <mxCell id="16BM7K-kEbTr5yHcOj87-46" value="Camping" style="rounded=0;whiteSpace=wrap;html=1;" vertex="1" parent="1">
          <mxGeometry x="730" y="450" width="120" height="30" as="geometry" />
        </mxCell>
        <mxCell id="16BM7K-kEbTr5yHcOj87-58" value="" style="endArrow=none;html=1;rounded=0;exitX=1;exitY=0.5;exitDx=0;exitDy=0;" edge="1" parent="1" source="16BM7K-kEbTr5yHcOj87-6">
          <mxGeometry width="50" height="50" relative="1" as="geometry">
            <mxPoint x="400" y="270" as="sourcePoint" />
            <mxPoint x="390" y="140" as="targetPoint" />
            <Array as="points">
              <mxPoint x="390" y="175" />
            </Array>
          </mxGeometry>
        </mxCell>
        <mxCell id="16BM7K-kEbTr5yHcOj87-62" value="Review Business Profiles" style="rounded=0;whiteSpace=wrap;html=1;" vertex="1" parent="1">
          <mxGeometry x="480" y="475" width="120" height="35" as="geometry" />
        </mxCell>
        <mxCell id="16BM7K-kEbTr5yHcOj87-63" value="Keep Track of User Activities&lt;span style=&quot;color: rgba(0, 0, 0, 0); font-family: monospace; font-size: 0px; text-align: start; text-wrap: nowrap;&quot;&gt;%3CmxGraphModel%3E%3Croot%3E%3CmxCell%20id%3D%220%22%2F%3E%3CmxCell%20id%3D%221%22%20parent%3D%220%22%2F%3E%3CmxCell%20id%3D%222%22%20value%3D%22Review%20Business%20Profiles%22%20style%3D%22rounded%3D0%3BwhiteSpace%3Dwrap%3Bhtml%3D1%3B%22%20vertex%3D%221%22%20parent%3D%221%22%3E%3CmxGeometry%20x%3D%22480%22%20y%3D%22475%22%20width%3D%22120%22%20height%3D%2235%22%20as%3D%22geometry%22%2F%3E%3C%2FmxCell%3E%3C%2Froot%3E%3C%2FmxGraphModel%3E&lt;/span&gt;" style="rounded=0;whiteSpace=wrap;html=1;" vertex="1" parent="1">
          <mxGeometry x="480" y="510" width="120" height="35" as="geometry" />
        </mxCell>
        <mxCell id="16BM7K-kEbTr5yHcOj87-64" value="Define Policies" style="rounded=0;whiteSpace=wrap;html=1;" vertex="1" parent="1">
          <mxGeometry x="480" y="545" width="120" height="35" as="geometry" />
        </mxCell>
        <mxCell id="16BM7K-kEbTr5yHcOj87-65" value="Define Permissions" style="rounded=0;whiteSpace=wrap;html=1;" vertex="1" parent="1">
          <mxGeometry x="480" y="580" width="120" height="35" as="geometry" />
        </mxCell>
        <mxCell id="16BM7K-kEbTr5yHcOj87-66" value="Remove&lt;span style=&quot;background-color: initial;&quot;&gt;&amp;nbsp;User&lt;/span&gt;" style="rounded=0;whiteSpace=wrap;html=1;" vertex="1" parent="1">
          <mxGeometry x="480" y="615" width="120" height="35" as="geometry" />
        </mxCell>
      </root>
    </mxGraphModel>
  </diagram>
</mxfile>
